<svg width="30" height="30" viewBox="0 0 30 30" fill="none" xmlns="http://www.w3.org/2000/svg">
<path d="M15.7886 0C16.352 0.0734841 16.9154 0.134721 17.4788 0.2327C20.8958 0.845067 23.7616 2.46172 26.0641 5.05816C28.1584 7.43414 29.3832 10.2143 29.6894 13.3496C30.0568 17.232 29.0648 20.7593 26.6888 23.8578C24.4842 26.7237 21.5939 28.5853 18.0421 29.3324C13.6086 30.2632 9.54248 29.3446 5.92951 26.6135C3.02689 24.409 1.18979 21.4941 0.418203 17.9301C0.283483 17.3055 0.222246 16.6564 0.136515 16.0195C0.124268 15.9216 0.0997718 15.8113 0.0875244 15.7133C0.0875244 15.1377 0.0875244 14.5499 0.0875244 13.9742C0.112019 13.766 0.136511 13.5578 0.161006 13.3496C0.516179 10.1531 1.74091 7.33616 3.8842 4.94793C6.17446 2.41273 9.00359 0.83282 12.3716 0.2327C12.935 0.134721 13.4984 0.0734841 14.0617 0C14.6251 0 15.213 0 15.7886 0ZM14.9313 28.3894C22.4022 28.3771 28.5014 22.2657 28.4769 14.8193C28.4524 7.34841 22.3532 1.24923 14.9068 1.27372C7.42368 1.29822 1.33676 7.3974 1.36125 14.8438C1.38574 22.3269 7.48492 28.4139 14.9313 28.3894Z" fill="#FF4E00"/>
<path d="M23.6269 8.30366C23.5902 8.65883 23.4677 8.86704 23.2105 8.97726C22.9288 9.08749 22.6839 9.014 22.4757 8.79355C22.0103 8.31591 21.5816 7.80152 21.0672 7.38511C19.0464 5.71947 16.7072 4.98463 14.0985 5.20508C11.4408 5.43778 9.24853 6.60128 7.52165 8.62209C7.46042 8.68333 7.41143 8.75681 7.35019 8.81805C7.08075 9.07524 6.72557 9.09974 6.46838 8.87928C6.19894 8.64658 6.14995 8.29141 6.39489 7.99747C6.65209 7.6668 6.94603 7.34836 7.23996 7.04218C11.8327 2.52291 19.2669 2.89033 23.382 7.86275C23.4799 7.99747 23.5534 8.19343 23.6269 8.30366Z" fill="#FF4E00"/>
<path d="M15.36 25.8173C11.845 25.7683 9.22406 24.6538 7.04403 22.4616C6.73784 22.1554 6.71335 21.788 6.9583 21.5063C7.21549 21.2246 7.58291 21.2491 7.93808 21.5308C8.61169 22.0819 9.24855 22.682 9.98339 23.1352C11.649 24.1884 13.4861 24.5926 15.458 24.4946C17.6012 24.3721 19.4873 23.6128 21.1407 22.2411C21.4224 22.0084 21.6674 21.739 21.949 21.494C22.3287 21.1756 22.8064 21.2736 22.9901 21.6777C23.1125 21.9349 23.0391 22.2044 22.7941 22.4616C21.2999 23.968 19.5363 25.0335 17.4543 25.4867C16.6337 25.6826 15.7764 25.7561 15.36 25.8173Z" fill="#FF4E00"/>
<path d="M12.5922 15.4807C13.0821 15.9706 13.5352 16.4115 13.9884 16.8646C14.1599 17.0361 14.2946 17.232 14.2578 17.5015C14.2211 17.7464 14.0741 17.9301 13.8414 18.0159C13.572 18.1139 13.327 18.0281 13.1311 17.8322C12.7269 17.4402 12.335 17.0361 11.9431 16.6442C11.8819 16.5829 11.8084 16.5217 11.6981 16.4115C11.6981 16.7666 11.6981 17.0483 11.6981 17.33C11.6859 17.7709 11.4409 18.0404 11.0735 18.0526C10.6939 18.0649 10.4122 17.7709 10.4122 17.33C10.4122 15.6644 10.4122 14.011 10.4122 12.3454C10.4122 11.9167 10.6081 11.6473 11.0123 11.635C11.6002 11.6105 12.2003 11.586 12.7759 11.684C13.6577 11.831 14.2823 12.676 14.2823 13.5578C14.2823 14.4396 13.67 15.2112 12.7882 15.4317C12.7392 15.4317 12.6902 15.4562 12.5922 15.4807ZM11.6981 14.2192C12.0043 14.1947 12.2738 14.1947 12.531 14.1457C12.8004 14.0845 12.9719 13.815 12.9719 13.5333C12.9596 13.2639 12.7759 12.9822 12.5065 12.9455C12.2493 12.9087 11.9798 12.9332 11.6981 12.9332C11.6981 13.3496 11.6981 13.7538 11.6981 14.2192Z" fill="#FF4E00"/>
<path d="M22.0348 12.9087C22.0348 13.3496 22.0348 13.7538 22.0348 14.1947C22.2307 14.1947 22.4144 14.1947 22.6104 14.1947C23.0391 14.2069 23.3207 14.4764 23.3085 14.8438C23.2962 15.2112 23.0268 15.4562 22.6104 15.4684C22.4267 15.4684 22.243 15.4684 22.0348 15.4684C22.0348 15.8971 22.0348 16.3012 22.0348 16.7544C22.2552 16.7544 22.4634 16.7544 22.6716 16.7544C23.137 16.7666 23.6024 16.7544 24.0556 16.7911C24.374 16.8156 24.5945 17.1096 24.5945 17.4035C24.5945 17.6974 24.374 17.9546 24.0801 18.0159C23.9821 18.0404 23.8719 18.0526 23.7617 18.0526C23.0268 18.0526 22.292 18.0526 21.5571 18.0526C20.9693 18.0526 20.7243 17.8077 20.7243 17.232C20.7243 15.6276 20.7243 14.0232 20.7243 12.4188C20.7243 11.8432 20.9693 11.5983 21.5326 11.5983C22.292 11.5983 23.0635 11.586 23.8229 11.5983C24.3985 11.5983 24.7292 12.0024 24.5577 12.4678C24.4352 12.7985 24.1658 12.8965 23.8351 12.8965C23.3575 12.8965 22.8676 12.8965 22.3899 12.8965C22.2797 12.9087 22.1695 12.9087 22.0348 12.9087Z" fill="#FF4E00"/>
<path d="M16.8664 12.9087C16.8664 13.3497 16.8664 13.7538 16.8664 14.1947C17.0624 14.1947 17.2583 14.1947 17.442 14.1947C17.8707 14.207 18.1524 14.4764 18.1401 14.8438C18.1279 15.2113 17.8584 15.4562 17.442 15.4684C17.2583 15.4684 17.0746 15.4684 16.8786 15.4684C16.8786 15.8971 16.8786 16.3135 16.8786 16.7544C17.0746 16.7544 17.2706 16.7544 17.4543 16.7544C17.9319 16.7667 18.4218 16.7544 18.8995 16.7912C19.2179 16.8157 19.4383 17.1096 19.4383 17.4158C19.4383 17.7097 19.2179 17.9669 18.924 18.0281C18.826 18.0526 18.7157 18.0649 18.6055 18.0649C17.8707 18.0649 17.1358 18.0649 16.401 18.0649C15.8131 18.0649 15.5682 17.8199 15.5682 17.2443C15.5682 15.6399 15.5682 14.0355 15.5682 12.4311C15.5682 11.8555 15.8131 11.6105 16.3765 11.6105C17.1358 11.6105 17.9074 11.5983 18.6668 11.6105C19.2424 11.6105 19.5731 12.0147 19.4016 12.4801C19.2791 12.8108 19.0097 12.9087 18.679 12.9087C18.2014 12.9087 17.7115 12.9087 17.2338 12.9087C17.1113 12.9087 17.0134 12.9087 16.8664 12.9087Z" fill="#FF4E00"/>
<path d="M6.54194 12.9087C6.52969 13.0067 6.51745 13.0557 6.51745 13.117C6.51745 13.4599 6.51745 13.8151 6.51745 14.207C6.70116 14.207 6.87262 14.207 7.04408 14.207C7.52173 14.2192 7.80342 14.4642 7.80342 14.8561C7.80342 15.248 7.52173 15.4807 7.05633 15.4929C6.89711 15.4929 6.72565 15.4929 6.52969 15.4929C6.52969 15.6032 6.51745 15.7134 6.51745 15.8114C6.51745 16.338 6.51745 16.8524 6.51745 17.379C6.5052 17.7954 6.26025 18.0649 5.89283 18.0771C5.52541 18.0894 5.24372 17.7954 5.23148 17.379C5.21923 15.7011 5.21923 14.011 5.23148 12.3331C5.23148 11.9045 5.47642 11.635 5.91732 11.635C6.75014 11.6105 7.58297 11.6228 8.40354 11.635C8.8077 11.6473 9.08939 11.9167 9.10164 12.2719C9.11388 12.6271 8.81995 12.9087 8.39129 12.921C7.8769 12.9332 7.36251 12.921 6.86037 12.921C6.76239 12.9087 6.66442 12.9087 6.54194 12.9087Z" fill="#FF4E00"/>
</svg>
