<svg width="31" height="30" viewBox="0 0 31 30" fill="none" xmlns="http://www.w3.org/2000/svg">
<path d="M0.250987 16.0424C0.422338 15.8487 0.586239 15.6624 0.75759 15.4687C1.92725 14.1649 3.26825 13.0698 4.76571 12.1683C5.29466 11.8554 5.81617 11.5276 6.33022 11.1924C6.39727 11.1477 6.42707 11.0359 6.44942 10.9465C7.13483 7.86966 7.81278 4.79279 8.49818 1.71592C8.59504 1.28382 8.68443 0.85172 8.78874 0.419617C8.86324 0.106716 9.07184 -0.0348353 9.34004 0.024765C9.60079 0.0843654 9.72744 0.307867 9.66784 0.628219C9.58589 1.03797 9.48904 1.45517 9.38474 1.90218C9.89134 2.02883 10.3905 2.15548 10.8896 2.27468C12.7224 2.72168 14.5476 3.15378 16.3729 3.60824C16.6038 3.66784 16.6783 3.60079 16.7528 3.39963C17.1551 2.41623 17.5649 1.44027 17.9746 0.464318C18.0193 0.367467 18.0566 0.263166 18.1236 0.181216C18.2577 0.00241489 18.4738 -0.0571854 18.6451 0.0620153C18.7718 0.151416 18.8463 0.345117 18.9059 0.509018C18.9282 0.583518 18.8612 0.695269 18.8239 0.78467C17.7735 3.30278 16.723 5.8209 15.6726 8.33901C15.6279 8.43586 15.5832 8.54016 15.5161 8.62212C15.3671 8.78602 15.1809 8.82327 14.9872 8.71152C14.7711 8.59232 14.6892 8.39861 14.7786 8.16021C14.935 7.75046 15.1064 7.34071 15.2777 6.92351C13.0576 6.4318 10.8449 5.94755 8.59503 5.4484C8.48328 5.955 8.35663 6.52865 8.22998 7.10231C7.86493 8.76367 7.49988 10.4176 7.13483 12.0789C7.11248 12.1832 7.10502 12.3173 7.14972 12.4142C7.53713 13.3007 8.05863 14.1053 8.69188 14.8429C9.49649 15.7742 10.5022 15.7816 11.4633 15.3123C11.7464 15.1707 11.9327 14.977 12.0593 14.6716C12.7298 13.0251 13.4227 11.3861 14.1081 9.74707C14.2869 9.31497 14.5104 9.16597 14.7935 9.29262C15.084 9.41927 15.1287 9.65767 14.9425 10.1047C14.2422 11.7884 13.5344 13.4721 12.8416 15.1633C12.7894 15.2899 12.7745 15.4687 12.8192 15.6028C12.9831 16.1839 13.1768 16.765 13.3631 17.3461C13.4227 17.3461 13.4599 17.3536 13.4972 17.3461C13.7728 17.3089 13.9963 17.3759 14.0783 17.6665C14.1528 17.9347 14.0261 18.1209 13.7728 18.2252C13.7281 18.2401 13.7132 18.3221 13.6834 18.3742C13.7505 18.3966 13.8101 18.4413 13.8771 18.4487C14.2496 18.4785 14.4582 18.7542 14.3167 19.0596C14.272 19.149 14.1751 19.2086 14.1006 19.2906C14.0634 19.3353 14.0112 19.4023 14.0261 19.4396C14.041 19.4843 14.1155 19.529 14.1677 19.529C14.4433 19.5364 14.6594 19.6556 14.6519 19.9313C14.6519 20.1101 14.5029 20.2963 14.421 20.4751C14.3912 20.4677 14.3614 20.4528 14.3316 20.4453C14.3912 20.6539 14.4582 20.8551 14.5104 21.0637C14.5849 21.3542 14.4806 21.5777 14.2273 21.6597C13.9814 21.7416 13.7654 21.6299 13.6536 21.3393C13.5642 21.1009 13.4897 20.8625 13.4078 20.6018C13.1768 20.639 12.9682 20.6837 12.7596 20.7061C12.4616 20.7433 12.2605 20.5943 12.2158 20.341C12.1785 20.1101 12.3275 19.894 12.5957 19.827C12.7671 19.7823 12.9384 19.7599 13.1098 19.7227C13.1172 19.6929 13.1321 19.6631 13.1396 19.6333C13.0576 19.596 12.9757 19.529 12.9012 19.5364C12.7447 19.5439 12.5957 19.596 12.4393 19.6184C12.1934 19.6556 11.9699 19.5141 11.9103 19.2906C11.8432 19.0522 11.9699 18.8212 12.2307 18.7393C12.4095 18.6871 12.5883 18.6573 12.8043 18.5381C12.7224 18.5009 12.6404 18.4338 12.5659 18.4338C12.3797 18.4413 12.2009 18.5009 12.0146 18.5083C11.7538 18.5232 11.5601 18.3742 11.5378 18.1358C11.508 17.8676 11.6346 17.6963 11.888 17.6292C12.0668 17.5845 12.2456 17.5547 12.4542 17.51C12.2977 17.0258 12.1562 16.5564 11.9997 16.0722C11.7613 16.1616 11.5378 16.2584 11.3068 16.3329C10.0776 16.7427 9.01224 16.4894 8.11823 15.5358C7.33598 14.7014 6.73997 13.7477 6.28552 12.7047C6.23337 12.5855 6.18122 12.4738 6.11417 12.3248C5.02646 13.107 3.86425 13.7477 2.8138 14.6119C3.19375 14.9919 3.5439 15.3346 3.88661 15.6848C4.40066 16.1988 4.91471 16.7129 5.42876 17.2269C5.66717 17.4728 5.69697 17.7335 5.50326 17.9272C5.30211 18.1358 5.04136 18.1209 4.78061 17.8602C3.92385 17.0034 3.07455 16.1467 2.2327 15.3048C1.94959 15.5954 1.67394 15.871 1.38339 16.1765C1.41319 16.2063 1.48024 16.2882 1.55474 16.3627C4.55711 19.3651 7.55202 22.3749 10.5544 25.3773C11.6123 26.4352 12.7596 27.3888 14.1304 28.0444C14.4657 28.2008 14.8233 28.3051 15.1809 28.4169C15.7918 28.6031 16.2462 28.3722 16.5666 27.8507C14.5029 27.2994 12.9161 25.9882 11.4335 24.5429C9.60079 22.7474 7.80533 20.9147 5.99497 19.0969C5.93537 19.0373 5.86831 18.9702 5.81616 18.9032C5.65971 18.702 5.66717 18.5009 5.83107 18.3146C5.98752 18.1358 6.23337 18.1209 6.44197 18.2774C6.52392 18.337 6.59097 18.4115 6.65802 18.4785C8.46093 20.2889 10.2638 22.0992 12.0742 23.9022C13.1619 24.9899 14.339 25.9733 15.7545 26.614C16.1345 26.7853 16.5442 26.8747 16.9391 27.0088C16.9689 26.979 17.0061 26.9418 17.0359 26.912C16.9093 26.6065 16.805 26.2862 16.6411 25.9956C16.1494 25.1389 15.4565 24.4535 14.6892 23.85C14.2273 23.485 14.1677 22.9709 14.041 22.4792C13.9889 22.2706 14.1379 22.1067 14.3465 22.0322C14.5625 21.9577 14.7339 22.0396 14.8531 22.2184C14.8903 22.278 14.9276 22.3376 14.935 22.4047C15.0021 22.8889 15.315 23.187 15.6651 23.4924C16.4474 24.1853 17.17 24.9377 17.6096 25.9062C17.7437 26.2042 17.848 26.532 17.9001 26.8598C17.9821 27.4558 17.8554 27.9922 17.3563 28.3945C17.2222 28.5063 17.0881 28.6329 16.9838 28.767C16.4921 29.3928 15.8216 29.4375 15.1138 29.3332C14.8233 29.296 14.5402 29.1991 14.2645 29.1023C14.1006 29.0427 14.0112 29.0576 13.9293 29.214C13.8771 29.3183 13.8101 29.4152 13.7356 29.5046C13.5791 29.6908 13.378 29.7355 13.1545 29.6238C12.9459 29.5195 12.8714 29.2587 12.9831 29.0352C13.0427 28.9011 13.1321 28.7819 13.2066 28.6553C12.5734 28.2157 11.955 27.7762 11.2249 27.2696C11.0908 27.4335 10.9418 27.6495 10.7704 27.8283C10.5171 28.0891 10.2489 28.104 10.0478 27.9028C9.86154 27.7091 9.89134 27.4409 10.1297 27.2025C10.2787 27.0461 10.4426 26.9045 10.5693 26.7928C9.98819 26.1744 9.42199 25.571 8.81854 24.9303C8.64719 25.1165 8.50563 25.2879 8.34918 25.4369C8.10333 25.6753 7.84258 25.6902 7.64888 25.4965C7.46263 25.3102 7.48498 25.0346 7.71593 24.7962C7.79043 24.7142 7.86493 24.6397 7.94688 24.5652C8.02883 24.4907 8.11078 24.4237 8.17038 24.3715C7.56693 23.7681 6.98582 23.187 6.36002 22.5611C6.22592 22.7101 6.07692 22.8964 5.90557 23.0528C5.66717 23.2764 5.41387 23.2764 5.22762 23.0752C5.05627 22.8964 5.07116 22.6282 5.26486 22.4121C5.34681 22.3227 5.42877 22.2408 5.51817 22.1588C5.60757 22.0843 5.70442 22.0173 5.78637 21.9502C5.16802 21.3319 4.59436 20.7582 3.99091 20.1548C3.84936 20.2889 3.6929 20.4453 3.529 20.6018C3.2757 20.8476 3.02985 20.8625 2.8287 20.6688C2.635 20.4826 2.65735 20.2069 2.8883 19.9685C3.0373 19.8121 3.2012 19.6705 3.3353 19.5439C2.73185 18.9404 2.1582 18.3593 1.51749 17.7186C1.39829 17.8602 1.25674 18.0464 1.09284 18.2103C0.861889 18.4338 0.608585 18.4413 0.414883 18.2476C0.236082 18.0613 0.243536 17.7931 0.459588 17.5622C0.616038 17.3983 0.78739 17.2493 0.966191 17.0854C0.705439 16.8172 0.474485 16.5713 0.236084 16.3255C0.250984 16.2435 0.250987 16.1392 0.250987 16.0424ZM9.19104 2.79618C9.08674 3.28043 8.99733 3.72744 8.87813 4.17444C8.81108 4.42029 8.87813 4.53204 9.11653 4.58419C11.2398 5.05354 13.3631 5.53035 15.4863 5.99225C15.5534 6.00715 15.6875 5.955 15.7173 5.8954C15.9184 5.4484 16.0972 5.00139 16.2984 4.52459C13.9144 3.94349 11.5676 3.36983 9.19104 2.79618Z" fill="#FF4E00"/>
<path d="M22.5117 24.148C18.1608 24.1406 14.6295 20.6018 14.6146 16.2882C14.5997 12.079 17.9224 8.35393 22.467 8.32413C26.855 8.29433 30.4311 11.8629 30.4236 16.1839C30.4013 20.6242 26.8923 24.1555 22.5117 24.148ZM22.6681 13.6733C22.2211 13.7254 21.6177 13.785 21.0216 13.867C20.9099 13.8819 20.7758 13.9713 20.7236 14.0607C20.2096 14.9696 19.9041 15.9455 19.8147 16.9885C19.8073 17.1003 19.8594 17.2418 19.9265 17.3312C20.5821 18.1358 21.4016 18.7095 22.3701 19.0522C22.4744 19.0894 22.6234 19.082 22.7277 19.0373C23.6664 18.5828 24.4785 17.957 25.1713 17.1822C25.2309 17.1152 25.2607 16.9885 25.2458 16.8917C25.1415 15.8487 24.7541 14.9025 24.2252 14.0085C24.1879 13.9415 24.0762 13.8893 23.9942 13.8744C23.6068 13.7999 23.2194 13.7478 22.6681 13.6733ZM29.4923 15.7146C29.3731 14.4555 29.0081 13.3753 28.3599 12.3993C28.3078 12.3248 28.1737 12.2801 28.0694 12.2652C27.4436 12.2056 26.8178 12.1758 26.192 12.1162C26.0281 12.1013 25.9461 12.1311 25.8567 12.2652C25.6183 12.6154 25.3799 12.9655 25.1266 13.3008C25.0149 13.4498 25.0223 13.5615 25.1117 13.718C25.6481 14.6567 26.0057 15.655 26.1622 16.7278C26.1771 16.8246 26.2888 16.9364 26.3782 16.9811C26.6762 17.1152 26.9742 17.2269 27.2871 17.3238C27.384 17.3536 27.533 17.3238 27.6149 17.2642C28.1886 16.8321 28.7473 16.3925 29.3061 15.9455C29.3955 15.8636 29.4551 15.7593 29.4923 15.7146ZM24.1805 12.9655C24.2177 12.9432 24.2922 12.9059 24.3369 12.8463C24.6126 12.4664 24.8882 12.079 25.149 11.6915C25.1862 11.6319 25.1862 11.5053 25.1564 11.4308C24.9031 10.8348 24.6424 10.2462 24.3742 9.65769C24.3295 9.56084 24.2177 9.45654 24.1209 9.42674C22.9959 9.14363 21.8635 9.16598 20.746 9.46399C20.6566 9.48634 20.5523 9.60554 20.515 9.70984C20.2766 10.3952 20.0457 11.0806 19.8371 11.7735C19.8073 11.8704 19.8296 12.0194 19.8892 12.1013C20.0904 12.3695 20.3064 12.6228 20.5299 12.8687C20.597 12.9357 20.7311 12.973 20.8279 12.9655C21.0812 12.9432 21.3271 12.8761 21.5804 12.8463C22.4372 12.7495 23.2865 12.7942 24.1805 12.9655ZM22.981 20.7285C22.9736 20.8924 22.9736 21.0637 22.9512 21.2276C22.9214 21.4362 23.0034 21.5331 23.1822 21.6374C23.726 21.9577 24.2624 22.3079 24.7914 22.6655C24.9329 22.7623 25.0298 22.7772 25.1862 22.7102C26.1026 22.3228 26.9146 21.7789 27.5851 21.0414C27.6596 20.9594 27.6894 20.7955 27.6671 20.6912C27.5628 20.2144 27.4138 19.745 27.302 19.2682C27.2275 18.9255 27.2871 18.486 27.0934 18.2625C26.8848 18.0241 26.4378 17.9943 26.11 17.8453C25.9312 17.7708 25.8269 17.808 25.7077 17.9421C25.1192 18.5828 24.4487 19.1416 23.6813 19.5439C23.1524 19.8195 22.8246 20.1026 22.981 20.7285ZM19.0176 12.5483C18.9431 12.5558 18.9282 12.5632 18.9058 12.5632C18.1087 12.6675 17.319 12.7718 16.5218 12.8836C16.4399 12.8985 16.3356 12.973 16.2909 13.0549C15.8141 13.9638 15.5757 14.9398 15.531 15.9679C15.531 16.0498 15.598 16.1616 15.6651 16.2212C16.2015 16.6458 16.7453 17.0705 17.2892 17.4802C17.3562 17.5324 17.4903 17.5622 17.5648 17.5324C17.9522 17.3908 18.3322 17.2418 18.7121 17.0705C18.7941 17.0332 18.8909 16.914 18.8984 16.8172C19.0176 15.7295 19.3379 14.7088 19.8445 13.7403C19.8818 13.6658 19.8669 13.5094 19.8147 13.4423C19.6136 13.1741 19.3901 12.9208 19.174 12.675C19.1219 12.6154 19.0548 12.5781 19.0176 12.5483ZM22.0572 20.7806C22.0721 20.5199 22.0721 20.341 22.0945 20.1697C22.1168 19.9983 22.0647 19.9015 21.8933 19.8419C20.8875 19.4545 20.0233 18.851 19.3305 18.0241C19.2187 17.89 19.1219 17.89 18.9803 17.957C18.6451 18.0986 18.3098 18.2401 17.9746 18.3593C17.8032 18.4189 17.7511 18.5232 17.7213 18.702C17.6095 19.3651 17.4829 20.0281 17.3413 20.6912C17.3115 20.8477 17.3264 20.9371 17.4382 21.0488C18.0863 21.7193 18.8313 22.2483 19.6806 22.6431C19.852 22.7251 19.9712 22.7176 20.1276 22.6059C20.5374 22.3228 20.9397 22.0024 21.4016 21.8162C21.9306 21.5927 22.2062 21.2947 22.0572 20.7806ZM28.3376 19.9536C28.3674 19.9536 28.4046 19.9462 28.4344 19.9462C29.0155 19.0298 29.3508 18.039 29.4327 16.9289C28.9783 17.2791 28.5462 17.659 28.129 18.039C28.0843 18.0837 28.0619 18.1805 28.0768 18.255C28.1588 18.8212 28.2482 19.3874 28.3376 19.9536ZM17.021 11.9151C17.0284 11.9449 17.0433 11.9747 17.0508 12.0045C17.6244 11.8927 18.1981 11.7809 18.7643 11.6617C18.8239 11.6468 18.8984 11.6021 18.9207 11.55C19.1368 11.021 19.3454 10.4921 19.554 9.96314C18.5035 10.4027 17.6766 11.0583 17.021 11.9151ZM23.7931 23.1199C23.8005 23.0901 23.808 23.0678 23.8229 23.038C23.4057 22.807 22.9959 22.5761 22.5713 22.3526C22.5191 22.3228 22.4372 22.3153 22.385 22.3451C21.938 22.5612 21.4985 22.7847 21.0589 23.0082C21.0664 23.038 21.0738 23.0603 21.0813 23.0901C21.9827 23.2838 22.8842 23.2987 23.7931 23.1199ZM16.5665 19.9015C16.5963 19.9015 16.6187 19.9015 16.6485 19.894C16.7081 19.4098 16.7677 18.933 16.8198 18.4487C16.8273 18.3891 16.8124 18.2997 16.7677 18.2625C16.4101 17.9347 16.045 17.6143 15.6874 17.294C15.6651 17.3163 15.6427 17.3312 15.6204 17.3536C15.7619 18.2699 16.0748 19.1192 16.5665 19.9015ZM27.4212 11.3637C27.4287 11.3339 27.4361 11.3041 27.4436 11.2743C26.8699 10.7081 26.2292 10.2462 25.4619 9.93334C25.6258 10.3356 25.8195 10.7156 26.0206 11.0955C26.043 11.1402 26.1026 11.1849 26.1547 11.1924C26.5794 11.252 27.004 11.3116 27.4212 11.3637Z" fill="#FF4E00"/>
</svg>
