<svg width="24" height="32" viewBox="0 0 24 32" fill="none" xmlns="http://www.w3.org/2000/svg">
<path d="M4.35627 31.25C4.27513 31.2139 4.19399 31.1779 4.11284 31.1418C3.22021 30.7992 2.84152 29.7984 3.2743 28.9508C3.30135 28.8967 3.32841 28.8426 3.36447 28.7795C3.22021 28.6623 3.07595 28.5541 2.9407 28.4459C1.01118 26.886 0.371013 24.136 1.41692 21.9C1.44397 21.8459 1.462 21.7918 1.49806 21.7377C1.63331 21.5213 1.82266 21.4401 2.0661 21.5393C2.29152 21.6295 2.3907 21.8639 2.30955 22.1163C2.18332 22.5131 2.03905 22.9098 1.92184 23.3155C1.88577 23.4327 1.88578 23.55 1.86774 23.7213C2.45381 23.7213 3.02185 23.7213 3.58989 23.7123C3.653 23.7123 3.71612 23.6311 3.7612 23.568C4.23907 22.9098 4.72596 22.2516 5.19481 21.5934C5.23989 21.5303 5.30301 21.4401 5.28498 21.386C5.16777 20.8721 5.03251 20.3581 4.89727 19.8352C4.30218 20.0426 3.8153 20.3491 3.36447 20.7368C3.25628 20.827 3.09397 20.9442 2.97676 20.9262C2.82348 20.9081 2.63413 20.7909 2.55299 20.6647C2.43577 20.4844 2.51693 20.277 2.68824 20.1237C3.42759 19.4385 4.28415 18.9516 5.27595 18.7803C5.88907 18.6811 6.53825 18.7171 7.16039 18.6811C7.25055 18.6811 7.36777 18.6721 7.43088 18.618C8.02597 18.113 8.61204 17.5991 9.18007 17.0942C8.94565 16.5803 8.62105 16.0212 8.43171 15.4171C8.24236 14.813 8.17925 14.1638 8.05302 13.4696C7.90876 13.4696 7.69236 13.4786 7.47597 13.4696C6.26777 13.4245 5.32103 12.5229 5.20382 11.2966C5.09562 10.1696 5.89809 9.07858 7.03416 8.83513C7.3858 8.763 7.74646 8.763 8.13416 8.73595C8.13416 8.31218 8.14319 7.88841 8.12515 7.47365C8.11614 7.3925 7.98991 7.29332 7.89073 7.23922C6.08744 6.2384 5.69973 3.86708 7.10629 2.37035C7.68334 1.75723 8.39565 1.44165 9.2432 1.38756C10.217 1.33346 11.1366 1.4687 11.9121 2.16297C12.2186 1.60395 12.6153 1.16214 13.1383 0.837553C13.6162 0.549027 14.1301 0.377715 14.6801 0.377715C17.1596 0.368698 19.6031 0.368698 22.0465 0.368698C22.3801 0.368698 22.5424 0.521978 22.5605 0.828536C22.6146 2.01871 22.4252 3.17281 21.8842 4.24577C21.7219 4.57036 21.4695 4.69659 21.217 4.56134C20.9736 4.43511 20.9105 4.18265 21.0728 3.85806C21.4605 3.04658 21.6769 2.20805 21.6498 1.26133C21.5236 1.26133 21.4154 1.26133 21.3072 1.26133C19.2424 1.26133 17.1777 1.31542 15.1129 1.24329C13.5801 1.18919 12.1285 2.37035 12.6063 4.41708C13.0211 6.21135 14.6621 7.28431 16.5555 7.03185C17.8809 6.85152 19.017 6.31955 19.9637 5.38184C20.2252 5.12938 20.5047 5.10233 20.7031 5.31872C20.8924 5.5261 20.8834 5.82364 20.5949 6.022C20.117 6.35561 20.0269 6.77939 20.0719 7.32037C20.108 7.78923 20.0809 8.25808 20.0809 8.763C21.0096 8.69989 21.8391 8.86218 22.4613 9.59251C22.831 10.0343 23.0293 10.5392 23.0203 11.1163C23.0113 11.8737 22.7047 12.4958 22.1096 12.9737C21.5236 13.4515 20.8293 13.4966 20.0809 13.4606C20.099 14.822 19.7113 16.0212 18.9719 17.0762C19.4859 17.4909 20.0178 17.8606 20.4687 18.3024C21.8572 19.6819 22.5154 21.377 22.5244 23.3245C22.5244 25.75 22.5244 28.1664 22.5244 30.5918C22.5244 30.8623 22.4613 31.0787 22.2449 31.241C16.285 31.25 10.3252 31.25 4.35627 31.25ZM9.97353 30.3303C12.8588 30.3303 15.699 30.3303 18.5752 30.3303C18.5752 30.1951 18.5752 30.0779 18.5752 29.9516C18.5752 28.1213 18.5752 26.291 18.5752 24.4606C18.5752 24.3344 18.5842 24.1991 18.6203 24.0729C18.6924 23.8655 18.8637 23.7844 19.0711 23.8024C19.2875 23.8205 19.4227 23.9467 19.4588 24.1631C19.4768 24.2713 19.4678 24.3795 19.4678 24.4967C19.4678 25.0828 19.4678 25.6778 19.4678 26.2819C20.1891 26.2819 20.8834 26.2819 21.5867 26.2819C21.5957 26.2188 21.6138 26.1557 21.6138 26.1016C21.6138 25.1278 21.6408 24.1541 21.6047 23.1803C21.5326 20.8991 20.5137 19.1499 18.5572 17.9598C18.3768 17.8516 18.2777 17.8696 18.1244 18.0139C17.1145 18.9335 15.9334 19.4565 14.5629 19.5467C12.8317 19.6639 11.335 19.1319 10.0457 17.9778C9.98254 17.9237 9.85631 17.8696 9.80221 17.8967C9.27024 18.1671 8.80138 18.5188 8.37761 18.9516C10.4063 19.8262 11.6776 21.2959 11.9571 23.4778C12.2366 25.6598 11.3711 27.391 9.63991 28.7344C10.0276 29.2123 9.96451 29.7713 9.97353 30.3303ZM19.1703 7.16709C16.7178 8.24906 14.4186 8.52857 12.444 6.27447C11.6145 7.42857 10.4334 7.73513 9.08089 7.59087C9.07188 7.70808 9.07188 7.78923 9.07188 7.87037C9.07188 9.79989 9.07188 11.7294 9.07188 13.6589C9.07188 13.9294 9.09892 14.1999 9.13499 14.4704C9.53171 17.1393 12.2366 19.0868 14.8965 18.618C17.4481 18.1671 19.1613 16.1384 19.1703 13.5597C19.1793 11.6933 19.1703 9.82694 19.1703 7.95152C19.1703 7.69005 19.1703 7.4466 19.1703 7.16709ZM9.63991 6.70725C10.6047 6.75234 11.353 6.39168 11.8219 5.53512C11.885 5.4179 11.876 5.25561 11.858 5.11134C11.7858 4.57036 11.6686 4.02937 11.6325 3.47937C11.6145 3.20888 11.5785 3.0015 11.353 2.86625C11.0465 2.67691 10.7399 2.46051 10.4063 2.37035C10.0547 2.27117 9.66697 2.2892 9.29729 2.29822C7.95384 2.33428 6.95302 3.6056 7.22351 4.922C7.46695 6.05807 8.34154 6.70725 9.63991 6.70725ZM8.46778 22.8737C7.67434 22.6122 6.89892 22.3508 6.11449 22.1073C6.05138 22.0893 5.91613 22.1614 5.86203 22.2336C5.42924 22.8106 5.01448 23.4057 4.57267 23.9827C4.47349 24.118 4.45546 24.2082 4.56366 24.3524C5.00547 24.9385 5.42924 25.5426 5.87104 26.1196C5.92514 26.1918 6.07841 26.2459 6.15956 26.2188C6.88088 26.0024 7.59318 25.759 8.30548 25.5155C8.37761 25.4885 8.45876 25.3893 8.45876 25.3172C8.47679 24.5147 8.46778 23.7032 8.46778 22.8737ZM5.01448 28.0852C5.09563 27.7516 5.19481 27.409 5.26694 27.0664C5.28498 26.9762 5.25792 26.85 5.20382 26.7688C4.73497 26.1016 4.24808 25.4524 3.77021 24.7942C3.71611 24.7221 3.64398 24.6319 3.57185 24.6319C3.01283 24.6229 2.45381 24.6229 1.88578 24.6229C1.88578 24.7131 1.87676 24.7672 1.88578 24.8123C2.10217 26.2369 2.82349 27.3369 4.04071 28.1033C4.10382 28.1393 4.19399 28.1574 4.26612 28.1574C4.50055 28.1483 4.73497 28.1123 5.01448 28.0852ZM19.4949 30.3303C20.2072 30.3303 20.9014 30.3303 21.5957 30.3303C21.5957 29.2844 21.5957 28.2565 21.5957 27.2287C20.8834 27.2287 20.1982 27.2287 19.4949 27.2287C19.4949 28.2656 19.4949 29.2844 19.4949 30.3303ZM10.0457 21.2418C8.89155 19.7901 6.87187 19.3122 5.79891 19.6549C5.91612 20.1057 6.02432 20.5655 6.15055 21.0163C6.1776 21.0975 6.27678 21.1967 6.35792 21.2237C7.12432 21.4852 7.89974 21.7377 8.67516 21.9811C8.7563 22.0081 8.88253 22.0082 8.95466 21.9631C9.32434 21.7377 9.67598 21.4942 10.0457 21.2418ZM9.06286 30.3303C9.06286 30.15 9.06286 29.9787 9.06286 29.8074C9.05384 29.2664 8.81041 29.0139 8.26942 29.0139C7.1063 29.0139 5.93416 29.0139 4.77104 29.0139C4.3112 29.0139 4.00464 29.2934 4.01366 29.6902C4.02268 30.0779 4.32022 30.3393 4.76202 30.3484C6.12351 30.3484 7.47596 30.3484 8.83745 30.3484C8.90056 30.3393 8.96368 30.3303 9.06286 30.3303ZM10.5686 21.9901C10.1899 22.2426 9.84729 22.459 9.51368 22.7024C9.44155 22.7565 9.38745 22.8827 9.38745 22.9729C9.37843 23.7754 9.37843 24.5778 9.38745 25.3803C9.38745 25.4705 9.42351 25.5877 9.48663 25.6328C9.83827 25.8852 10.1989 26.1196 10.5686 26.3631C11.2899 24.9024 11.2989 23.4688 10.5686 21.9901ZM20.099 12.5499C20.8293 12.6311 21.4785 12.5679 21.8933 11.8917C22.2178 11.3597 22.1998 10.8188 21.8572 10.3048C21.4334 9.68268 20.7932 9.62858 20.099 9.6917C20.099 10.6474 20.099 11.5851 20.099 12.5499ZM8.14319 9.6917C7.37679 9.61956 6.70958 9.71874 6.31285 10.431C6.01531 10.972 6.06038 11.513 6.43006 12.0089C6.87186 12.586 7.48499 12.622 8.14319 12.5499C8.14319 11.5851 8.14319 10.6474 8.14319 9.6917ZM10.1088 27.1475C9.67598 26.859 9.33336 26.6156 8.9727 26.3992C8.89155 26.3541 8.76532 26.3451 8.67516 26.3721C7.90876 26.6065 7.14235 26.859 6.38497 27.1115C6.31284 27.1385 6.20466 27.1746 6.18662 27.2287C6.09646 27.5172 6.03334 27.8057 5.94318 28.1574C6.93498 28.1574 7.84564 28.1574 8.7563 28.1574C8.81942 28.1574 8.90057 28.1303 8.94565 28.0942C9.32434 27.7877 9.69401 27.4901 10.1088 27.1475Z" fill="#FF4E00"/>
<path d="M14.3374 23.1082C14.0219 23.1082 13.7514 23.1172 13.4809 23.1082C13.1924 23.0991 13.012 22.9368 13.003 22.6754C12.994 22.4049 13.1743 22.2155 13.4809 22.2065C13.9137 22.1975 14.3465 22.1975 14.7792 22.2065C15.0768 22.2155 15.2481 22.3868 15.2481 22.6844C15.2571 24.2532 15.2571 25.8131 15.2481 27.382C15.2481 27.6795 15.0497 27.8779 14.7883 27.8688C14.5178 27.8598 14.3464 27.6615 14.3464 27.3279C14.3464 26.0475 14.3464 24.7582 14.3464 23.4778C14.3374 23.3696 14.3374 23.2614 14.3374 23.1082Z" fill="#FF4E00"/>
<path d="M14.1122 14.2991C13.2376 14.272 12.4712 13.9835 11.831 13.3884C11.5876 13.163 11.5515 12.9106 11.7318 12.7032C11.9122 12.4958 12.1736 12.4958 12.4261 12.7032C13.5351 13.6138 14.7253 13.6229 15.8073 12.7122C16.0597 12.4958 16.3122 12.4868 16.5015 12.6851C16.6999 12.8925 16.6638 13.154 16.4023 13.3884C15.7532 13.9925 14.9778 14.2811 14.1122 14.2991Z" fill="#FF4E00"/>
<path d="M13.1293 9.65561C13.1293 9.84496 13.1383 10.0343 13.1293 10.2236C13.1112 10.4851 12.9579 10.6294 12.7145 10.6474C12.462 10.6655 12.2727 10.5212 12.2547 10.2687C12.2276 9.85397 12.2276 9.4302 12.2547 9.00643C12.2727 8.76298 12.4711 8.61872 12.7235 8.63675C12.967 8.65479 13.1202 8.80806 13.1383 9.06954C13.1383 9.27692 13.1293 9.46626 13.1293 9.65561Z" fill="#FF4E00"/>
<path d="M15.113 9.62862C15.113 9.44829 15.1039 9.26796 15.113 9.08763C15.131 8.82616 15.3113 8.63681 15.5457 8.63681C15.7982 8.64583 15.9785 8.78107 15.9966 9.03353C16.0236 9.43927 16.0236 9.85403 15.9966 10.2598C15.9785 10.5032 15.7892 10.6475 15.5367 10.6475C15.2933 10.6475 15.122 10.4671 15.113 10.1967C15.1039 10.0163 15.113 9.81796 15.113 9.62862Z" fill="#FF4E00"/>
</svg>
