<svg width="30" height="30" viewBox="0 0 30 30" fill="none" xmlns="http://www.w3.org/2000/svg">
<path d="M13.9742 29.6421C13.4383 29.5706 12.9023 29.5111 12.3663 29.4158C9.54347 28.9275 7.06604 27.7126 4.95785 25.7592C2.49233 23.4843 0.93203 20.6853 0.431781 17.3622C-0.318593 12.3716 1.08687 8.03609 4.6839 4.47479C6.95884 2.21176 9.73404 0.889668 12.9142 0.460883C20.7514 -0.587259 27.6358 4.6058 29.1961 11.8356C29.339 12.4907 29.3986 13.1577 29.4939 13.8128C29.5058 13.8962 29.5296 13.9795 29.5415 14.0629C29.5415 14.6584 29.5415 15.2421 29.5415 15.8376C29.4701 16.4093 29.4105 16.9929 29.3152 17.5646C28.9579 19.6252 28.1718 21.5071 27.0046 23.2341C26.8021 23.5319 26.4567 23.6153 26.1827 23.4366C25.8969 23.246 25.8492 22.9126 26.0636 22.5791C27.0879 21.0664 27.8026 19.4227 28.1361 17.6242C28.9222 13.384 27.9574 9.57257 25.1941 6.26139C23.1098 3.77206 20.4418 2.22367 17.2378 1.67577C13.1048 0.973043 9.40054 1.98545 6.18465 4.66536C3.69531 6.74973 2.14692 9.41773 1.59903 12.6217C0.896298 16.7547 1.90871 20.4589 4.58861 23.6748C6.39904 25.8426 8.6859 27.3076 11.4254 28.0222C15.2487 29.0108 18.8457 28.4391 22.2045 26.3428C22.2998 26.2833 22.3951 26.2118 22.4904 26.1523C22.8239 25.9379 23.1574 25.9855 23.348 26.2714C23.5266 26.5453 23.4552 26.9145 23.1217 27.1051C22.3356 27.5577 21.5495 28.0342 20.7157 28.4272C19.2269 29.118 17.6427 29.4873 15.9991 29.5945C15.9157 29.5945 15.8323 29.6302 15.7489 29.6421C15.1534 29.6421 14.5698 29.6421 13.9742 29.6421Z" fill="#FF4E00"/>
<path d="M3.67145 14.992C3.67145 8.81032 8.69776 3.7721 14.8794 3.7721C21.073 3.76019 26.1231 8.82224 26.1112 15.0039C26.0993 21.1855 21.0611 26.2119 14.8913 26.2119C8.69776 26.1999 3.67145 21.1617 3.67145 14.992ZM21.6209 7.48824C19.8224 5.92794 17.7975 5.07037 15.4869 4.92744C15.475 4.98699 15.463 4.9989 15.463 5.02272C15.463 5.3324 15.463 5.63017 15.463 5.93985C15.463 6.35672 15.2486 6.61876 14.9032 6.63067C14.5459 6.63067 14.3196 6.36863 14.3196 5.92794C14.3196 5.59444 14.3196 5.27285 14.3196 4.92744C11.9732 5.09419 9.94839 5.92794 8.16178 7.50015C8.44764 7.7741 8.72158 8.01231 8.97171 8.27434C9.22183 8.53638 9.22183 8.85797 8.99553 9.09618C8.76923 9.3344 8.43573 9.3344 8.17369 9.08427C7.91166 8.82224 7.66153 8.54829 7.3995 8.26243C5.8392 10.0609 4.98162 12.0858 4.82679 14.4322C5.18411 14.4322 5.51761 14.4322 5.85111 14.4322C6.26798 14.4322 6.53002 14.6585 6.53002 15.0039C6.53002 15.3493 6.26798 15.5756 5.85111 15.5756C5.51761 15.5756 5.18411 15.5756 4.82679 15.5756C4.98162 17.922 5.82728 19.9349 7.3995 21.7453C7.66153 21.4595 7.89975 21.1736 8.17369 20.9116C8.47146 20.6257 8.88833 20.6853 9.07891 21.0188C9.22183 21.257 9.1861 21.5071 8.94789 21.7453C8.69776 21.9955 8.42382 22.2456 8.14987 22.4957C9.94839 24.056 11.9613 24.9017 14.3077 25.0565C14.3077 24.7468 14.3077 24.4729 14.3077 24.199C14.3077 23.6272 14.4983 23.3533 14.8913 23.3533C15.2725 23.3533 15.4511 23.6272 15.4511 24.1751C15.4511 24.461 15.4511 24.7468 15.4511 25.0446C17.7975 24.8898 19.8224 24.0441 21.609 22.4719C21.3231 22.198 21.0372 21.9597 20.7871 21.6977C20.5013 21.3999 20.5608 20.9831 20.8943 20.7925C21.1325 20.6615 21.3946 20.6972 21.6209 20.9235C21.871 21.1736 22.1092 21.4476 22.3712 21.7215C23.9315 19.9111 24.7772 17.8982 24.932 15.5875C24.8844 15.5756 24.8606 15.5637 24.8487 15.5637C24.539 15.5637 24.2174 15.5637 23.9077 15.5637C23.5028 15.5637 23.2407 15.3255 23.2407 14.9801C23.2526 14.6466 23.5028 14.4203 23.9077 14.4203C24.2531 14.4203 24.5866 14.4203 24.944 14.4203C24.7772 12.0739 23.9435 10.049 22.4189 8.31008C22.3832 8.32199 22.3712 8.32199 22.3712 8.3339C22.133 8.57211 21.8948 8.79842 21.6566 9.03663C21.3588 9.32249 21.0492 9.34631 20.799 9.09618C20.537 8.84606 20.5608 8.51256 20.8586 8.21479C21.0968 7.97658 21.3469 7.73836 21.6209 7.48824Z" fill="#FF4E00"/>
<path d="M25.4205 24.9374C25.4205 25.259 25.1584 25.521 24.8487 25.521C24.5391 25.521 24.2889 25.259 24.2889 24.9612C24.2889 24.6396 24.551 24.3776 24.8607 24.3776C25.1584 24.3776 25.4205 24.6396 25.4205 24.9374Z" fill="#FF4E00"/>
<path d="M15.463 12.2287C15.463 12.991 15.4511 13.7533 15.4749 14.5156C15.4749 14.6466 15.5464 14.8133 15.6417 14.9086C16.666 15.9449 17.7022 16.9811 18.7265 18.0054C18.7861 18.065 18.8456 18.1245 18.9052 18.1841C19.1553 18.458 19.1672 18.7915 18.929 19.0297C18.6908 19.256 18.3573 19.256 18.0834 18.9821C17.2734 18.1841 16.4754 17.3741 15.6774 16.5761C15.3082 16.2069 14.9151 15.8496 14.5697 15.4565C14.4387 15.3017 14.3196 15.0635 14.3196 14.8491C14.2958 13.2054 14.3077 11.5736 14.3077 9.92996C14.3077 9.51309 14.534 9.25105 14.8794 9.25105C15.2248 9.25105 15.4511 9.51309 15.4511 9.92996C15.463 10.7042 15.463 11.4664 15.463 12.2287Z" fill="#FF4E00"/>
</svg>
