<svg width="44" height="44" viewBox="0 0 44 44" fill="none" xmlns="http://www.w3.org/2000/svg">
<circle cx="22" cy="22" r="22" fill="#FF4E00"/>
<path d="M22.811 11C23.2348 11.0553 23.6586 11.1013 24.0824 11.175C26.6528 11.6357 28.8087 12.8518 30.5407 14.805C32.1161 16.5923 33.0374 18.6836 33.2678 21.0421C33.5442 23.9627 32.7979 26.616 31.0106 28.9469C29.3522 31.1027 27.178 32.5031 24.5062 33.0651C21.1711 33.7653 18.1124 33.0743 15.3946 31.0198C13.2111 29.3615 11.8292 27.1688 11.2488 24.4878C11.1474 24.0179 11.1013 23.5296 11.0369 23.0506C11.0276 22.9769 11.0092 22.894 11 22.8202C11 22.3872 11 21.945 11 21.512C11.0184 21.3554 11.0368 21.1988 11.0553 21.0421C11.3225 18.6376 12.2438 16.5186 13.856 14.722C15.5788 12.815 17.707 11.6265 20.2406 11.175C20.6644 11.1013 21.0882 11.0553 21.512 11C21.9358 11 22.378 11 22.811 11ZM22.1661 32.3557C27.786 32.3465 32.3741 27.7492 32.3557 22.1477C32.3373 16.5278 27.7492 11.9397 22.1477 11.9581C16.5186 11.9766 11.9397 16.5646 11.9582 22.1661C11.9766 27.7953 16.5646 32.3741 22.1661 32.3557Z" fill="white"/>
<path d="M28.7074 17.2464C28.6798 17.5136 28.5876 17.6702 28.3942 17.7531C28.1823 17.836 27.998 17.7807 27.8414 17.6149C27.4913 17.2556 27.1688 16.8687 26.7819 16.5554C25.2618 15.3025 23.5021 14.7497 21.5397 14.9155C19.5405 15.0906 17.8914 15.9658 16.5923 17.4859C16.5463 17.532 16.5094 17.5873 16.4634 17.6333C16.2607 17.8268 15.9935 17.8452 15.8 17.6794C15.5973 17.5044 15.5605 17.2372 15.7448 17.0161C15.9382 16.7673 16.1593 16.5278 16.3805 16.2975C19.8353 12.8979 25.4276 13.1743 28.5232 16.9147C28.5969 17.0161 28.6521 17.1635 28.7074 17.2464Z" fill="white"/>
<path d="M22.4886 30.4208C19.8445 30.384 17.8729 29.5456 16.233 27.8965C16.0026 27.6662 15.9842 27.3898 16.1685 27.1779C16.362 26.966 16.6383 26.9844 16.9055 27.1963C17.4122 27.6109 17.8913 28.0623 18.4441 28.4032C19.697 29.1955 21.079 29.4995 22.5623 29.4258C24.1746 29.3337 25.5934 28.7625 26.8371 27.7306C27.049 27.5556 27.2333 27.3529 27.4452 27.1687C27.7308 26.9291 28.0901 27.0028 28.2283 27.3068C28.3204 27.5003 28.2651 27.703 28.0809 27.8965C26.9569 29.0297 25.6302 29.8312 24.064 30.1721C23.4467 30.3195 22.8018 30.3748 22.4886 30.4208Z" fill="white"/>
<path d="M20.4065 22.6453C20.775 23.0138 21.1159 23.3455 21.4568 23.6864C21.5858 23.8154 21.6871 23.9628 21.6595 24.1655C21.6318 24.3497 21.5213 24.4879 21.3462 24.5524C21.1435 24.6261 20.9593 24.5616 20.8119 24.4142C20.5079 24.1194 20.213 23.8154 19.9182 23.5205C19.8722 23.4745 19.8169 23.4284 19.734 23.3455C19.734 23.6127 19.734 23.8246 19.734 24.0365C19.7248 24.3681 19.5405 24.5708 19.2641 24.58C18.9785 24.5893 18.7666 24.3681 18.7666 24.0365C18.7666 22.7835 18.7666 21.5398 18.7666 20.2868C18.7666 19.9643 18.914 19.7617 19.218 19.7524C19.6603 19.734 20.1117 19.7156 20.5447 19.7893C21.208 19.8999 21.6779 20.5355 21.6779 21.1989C21.6779 21.8622 21.2173 22.4426 20.5539 22.6085C20.5171 22.6085 20.4802 22.6269 20.4065 22.6453ZM19.734 21.6964C19.9643 21.678 20.167 21.678 20.3604 21.6411C20.5631 21.595 20.6921 21.3924 20.6921 21.1805C20.6829 20.9778 20.5447 20.7659 20.342 20.7382C20.1485 20.7106 19.9459 20.729 19.734 20.729C19.734 21.0423 19.734 21.3463 19.734 21.6964Z" fill="white"/>
<path d="M27.5096 20.7105C27.5096 21.0421 27.5096 21.3462 27.5096 21.6778C27.657 21.6778 27.7952 21.6778 27.9426 21.6778C28.2651 21.687 28.477 21.8897 28.4677 22.1661C28.4585 22.4425 28.2558 22.6268 27.9426 22.636C27.8044 22.636 27.6662 22.636 27.5096 22.636C27.5096 22.9584 27.5096 23.2625 27.5096 23.6033C27.6754 23.6033 27.832 23.6033 27.9887 23.6033C28.3388 23.6126 28.6889 23.6033 29.0297 23.631C29.2693 23.6494 29.4351 23.8705 29.4351 24.0916C29.4351 24.3127 29.2693 24.5062 29.0482 24.5523C28.9745 24.5707 28.8915 24.5799 28.8086 24.5799C28.2558 24.5799 27.7031 24.5799 27.1503 24.5799C26.7081 24.5799 26.5238 24.3957 26.5238 23.9626C26.5238 22.7557 26.5238 21.5488 26.5238 20.3419C26.5238 19.9089 26.7081 19.7247 27.1319 19.7247C27.7031 19.7247 28.2835 19.7155 28.8547 19.7247C29.2877 19.7247 29.5364 20.0287 29.4075 20.3788C29.3153 20.6275 29.1127 20.7013 28.8639 20.7013C28.5046 20.7013 28.1361 20.7013 27.7768 20.7013C27.6939 20.7105 27.6109 20.7105 27.5096 20.7105Z" fill="white"/>
<path d="M23.6217 20.7105C23.6217 21.0422 23.6217 21.3462 23.6217 21.6779C23.7691 21.6779 23.9165 21.6779 24.0547 21.6779C24.3772 21.6871 24.5891 21.8898 24.5799 22.1662C24.5707 22.4426 24.368 22.6268 24.0547 22.636C23.9165 22.636 23.7783 22.636 23.6309 22.636C23.6309 22.9585 23.6309 23.2717 23.6309 23.6034C23.7783 23.6034 23.9257 23.6034 24.0639 23.6034C24.4232 23.6126 24.7918 23.6034 25.1511 23.631C25.3906 23.6495 25.5564 23.8706 25.5564 24.1009C25.5564 24.322 25.3906 24.5155 25.1695 24.5616C25.0958 24.58 25.0129 24.5892 24.93 24.5892C24.3772 24.5892 23.8244 24.5892 23.2716 24.5892C22.8294 24.5892 22.6451 24.4049 22.6451 23.9719C22.6451 22.765 22.6451 21.5581 22.6451 20.3512C22.6451 19.9182 22.8294 19.734 23.2532 19.734C23.8244 19.734 24.4048 19.7247 24.976 19.734C25.409 19.734 25.6578 20.038 25.5288 20.3881C25.4367 20.6368 25.234 20.7105 24.9852 20.7105C24.6259 20.7105 24.2574 20.7105 23.8981 20.7105C23.806 20.7105 23.7323 20.7105 23.6217 20.7105Z" fill="white"/>
<path d="M15.8552 20.7105C15.846 20.7842 15.8368 20.821 15.8368 20.8671C15.8368 21.1251 15.8368 21.3922 15.8368 21.6871C15.975 21.6871 16.104 21.6871 16.233 21.6871C16.5923 21.6963 16.8042 21.8805 16.8042 22.1753C16.8042 22.4702 16.5923 22.6452 16.2422 22.6544C16.1224 22.6544 15.9934 22.6544 15.846 22.6544C15.846 22.7373 15.8368 22.8203 15.8368 22.894C15.8368 23.2901 15.8368 23.6771 15.8368 24.0732C15.8276 24.3865 15.6433 24.5892 15.367 24.5984C15.0906 24.6076 14.8787 24.3865 14.8695 24.0732C14.8602 22.811 14.8602 21.5397 14.8695 20.2775C14.8695 19.955 15.0537 19.7523 15.3854 19.7523C16.0119 19.7339 16.6384 19.7431 17.2556 19.7523C17.5596 19.7616 17.7715 19.9642 17.7808 20.2314C17.79 20.4986 17.5689 20.7105 17.2464 20.7197C16.8595 20.7289 16.4725 20.7197 16.0948 20.7197C16.0211 20.7105 15.9474 20.7105 15.8552 20.7105Z" fill="white"/>
</svg>
