<svg width="44" height="44" viewBox="0 0 44 44" fill="none" xmlns="http://www.w3.org/2000/svg">
<circle cx="22" cy="22" r="22" fill="#FF4E00"/>
<path d="M16.4731 33.211C16.4147 33.185 16.3564 33.1591 16.298 33.1332C15.656 32.8867 15.3836 32.1669 15.6949 31.5573C15.7144 31.5184 15.7338 31.4795 15.7598 31.4341C15.656 31.3498 15.5522 31.272 15.455 31.1942C14.0672 30.0723 13.6067 28.0944 14.359 26.4861C14.3785 26.4472 14.3914 26.4083 14.4174 26.3694C14.5146 26.2137 14.6508 26.1554 14.8259 26.2267C14.988 26.2915 15.0594 26.4601 15.001 26.6417C14.9102 26.9271 14.8065 27.2124 14.7222 27.5042C14.6962 27.5885 14.6962 27.6728 14.6832 27.796C15.1048 27.796 15.5133 27.796 15.9219 27.7896C15.9673 27.7896 16.0127 27.7312 16.0451 27.6858C16.3888 27.2124 16.739 26.739 17.0762 26.2656C17.1086 26.2202 17.154 26.1554 17.141 26.1164C17.0567 25.7468 16.9595 25.3772 16.8622 25.001C16.4342 25.1502 16.084 25.3707 15.7598 25.6495C15.6819 25.7144 15.5652 25.7987 15.4809 25.7857C15.3706 25.7727 15.2345 25.6884 15.1761 25.5976C15.0918 25.4679 15.1502 25.3188 15.2734 25.2085C15.8051 24.7157 16.4212 24.3655 17.1346 24.2423C17.5755 24.171 18.0425 24.1969 18.4899 24.171C18.5548 24.171 18.6391 24.1645 18.6845 24.1256C19.1125 23.7624 19.534 23.3928 19.9425 23.0296C19.7739 22.66 19.5405 22.2579 19.4043 21.8234C19.2681 21.3889 19.2227 20.922 19.1319 20.4226C19.0282 20.4226 18.8725 20.4291 18.7169 20.4226C17.8479 20.3902 17.167 19.7417 17.0827 18.8598C17.0049 18.0492 17.582 17.2645 18.3991 17.0894C18.652 17.0375 18.9114 17.0375 19.1903 17.018C19.1903 16.7132 19.1968 16.4085 19.1838 16.1101C19.1773 16.0518 19.0865 15.9804 19.0152 15.9415C17.7182 15.2217 17.4394 13.5162 18.451 12.4397C18.866 11.9987 19.3784 11.7717 19.9879 11.7328C20.6883 11.6939 21.3498 11.7912 21.9075 12.2905C22.128 11.8884 22.4133 11.5707 22.7894 11.3372C23.1331 11.1297 23.5028 11.0065 23.8984 11.0065C25.6817 11 27.4392 11 29.1966 11C29.4365 11 29.5533 11.1102 29.5662 11.3307C29.6051 12.1867 29.469 13.0168 29.0799 13.7885C28.9631 14.022 28.7816 14.1128 28.6 14.0155C28.4249 13.9247 28.3795 13.7431 28.4962 13.5097C28.7751 12.926 28.9307 12.3229 28.9113 11.642C28.8205 11.642 28.7426 11.642 28.6648 11.642C27.1798 11.642 25.6947 11.6809 24.2097 11.629C23.1072 11.5901 22.0631 12.4397 22.4068 13.9117C22.7051 15.2023 23.8854 15.974 25.2473 15.7924C26.2005 15.6627 27.0176 15.2801 27.6986 14.6056C27.8866 14.4241 28.0877 14.4046 28.2303 14.5602C28.3665 14.7094 28.36 14.9234 28.1525 15.0661C27.8088 15.306 27.744 15.6108 27.7764 15.9999C27.8023 16.3371 27.7829 16.6743 27.7829 17.0375C28.4508 16.9921 29.0474 17.1088 29.4949 17.6341C29.7608 17.9519 29.9035 18.315 29.897 18.7301C29.8905 19.2748 29.67 19.7223 29.242 20.066C28.8205 20.4097 28.3211 20.4421 27.7829 20.4162C27.7958 21.3954 27.517 22.2579 26.9852 23.0166C27.3549 23.3149 27.7375 23.5808 28.0617 23.8986C29.0604 24.8908 29.5338 26.11 29.5403 27.5107C29.5403 29.2552 29.5403 30.9931 29.5403 32.7376C29.5403 32.9321 29.4949 33.0878 29.3393 33.2045C25.0527 33.211 20.7661 33.211 16.4731 33.211ZM20.5132 32.5495C22.5884 32.5495 24.6312 32.5495 26.6999 32.5495C26.6999 32.4522 26.6999 32.3679 26.6999 32.2772C26.6999 30.9607 26.6999 29.6443 26.6999 28.3278C26.6999 28.237 26.7064 28.1398 26.7323 28.049C26.7842 27.8998 26.9074 27.8414 27.0566 27.8544C27.2122 27.8674 27.3095 27.9582 27.3354 28.1138C27.3484 28.1916 27.3419 28.2694 27.3419 28.3538C27.3419 28.7753 27.3419 29.2033 27.3419 29.6378C27.8607 29.6378 28.36 29.6378 28.8659 29.6378C28.8723 29.5924 28.8853 29.547 28.8853 29.5081C28.8853 28.8077 28.9048 28.1073 28.8788 27.4069C28.8269 25.7663 28.0941 24.5082 26.6869 23.6522C26.5572 23.5743 26.4859 23.5873 26.3756 23.6911C25.6493 24.3525 24.7998 24.7287 23.8141 24.7935C22.569 24.8778 21.4925 24.4952 20.5651 23.6651C20.5197 23.6262 20.4289 23.5873 20.39 23.6068C20.0074 23.8013 19.6702 24.0542 19.3654 24.3655C20.8245 24.9945 21.7389 26.0516 21.9399 27.621C22.141 29.1903 21.5184 30.4354 20.2733 31.4017C20.5521 31.7454 20.5067 32.1475 20.5132 32.5495ZM27.1279 15.8897C25.364 16.6679 23.7103 16.8689 22.2901 15.2476C21.6935 16.0777 20.844 16.2982 19.8712 16.1945C19.8647 16.2788 19.8647 16.3371 19.8647 16.3955C19.8647 17.7833 19.8647 19.171 19.8647 20.5588C19.8647 20.7534 19.8842 20.9479 19.9101 21.1425C20.1955 23.062 22.1409 24.4628 24.054 24.1256C25.8893 23.8013 27.1214 22.3422 27.1279 20.4875C27.1344 19.1451 27.1279 17.8027 27.1279 16.4539C27.1279 16.2658 27.1279 16.0907 27.1279 15.8897ZM20.2733 15.5589C20.9672 15.5914 21.5054 15.332 21.8426 14.7159C21.888 14.6316 21.8816 14.5148 21.8686 14.4111C21.8167 14.022 21.7324 13.6329 21.7065 13.2373C21.6935 13.0428 21.6676 12.8936 21.5054 12.7963C21.2849 12.6601 21.0644 12.5045 20.8245 12.4397C20.5716 12.3683 20.2927 12.3813 20.0269 12.3878C19.0606 12.4137 18.3408 13.3281 18.5353 14.2749C18.7104 15.092 19.3394 15.5589 20.2733 15.5589ZM19.4302 27.1865C18.8596 26.9984 18.3019 26.8103 17.7377 26.6352C17.6923 26.6223 17.595 26.6741 17.5561 26.726C17.2448 27.1411 16.9465 27.5691 16.6287 27.9841C16.5574 28.0814 16.5444 28.1462 16.6223 28.25C16.94 28.6715 17.2448 29.106 17.5626 29.521C17.6015 29.5729 17.7117 29.6118 17.7701 29.5924C18.2889 29.4367 18.8012 29.2616 19.3135 29.0866C19.3654 29.0671 19.4237 28.9958 19.4237 28.9439C19.4367 28.3667 19.4302 27.7831 19.4302 27.1865ZM16.9465 30.9348C17.0049 30.6948 17.0762 30.4484 17.1281 30.202C17.141 30.1371 17.1216 30.0463 17.0827 29.988C16.7455 29.5081 16.3953 29.0412 16.0516 28.5678C16.0127 28.5159 15.9608 28.451 15.9089 28.451C15.5068 28.4445 15.1048 28.4445 14.6962 28.4445C14.6962 28.5094 14.6897 28.5483 14.6962 28.5807C14.8519 29.6054 15.3707 30.3965 16.2461 30.9477C16.2915 30.9737 16.3564 30.9866 16.4082 30.9866C16.5769 30.9802 16.7455 30.9542 16.9465 30.9348ZM27.3613 32.5495C27.8737 32.5495 28.373 32.5495 28.8723 32.5495C28.8723 31.7973 28.8723 31.058 28.8723 30.3187C28.36 30.3187 27.8672 30.3187 27.3613 30.3187C27.3613 31.0645 27.3613 31.7973 27.3613 32.5495ZM20.5651 26.0127C19.735 24.9686 18.2824 24.6249 17.5107 24.8713C17.595 25.1956 17.6728 25.5263 17.7636 25.8506C17.7831 25.9089 17.8544 25.9803 17.9128 25.9997C18.464 26.1878 19.0217 26.3694 19.5794 26.5444C19.6378 26.5639 19.7285 26.5639 19.7804 26.5315C20.0463 26.3694 20.2992 26.1943 20.5651 26.0127ZM19.8582 32.5495C19.8582 32.4198 19.8582 32.2966 19.8582 32.1734C19.8518 31.7843 19.6767 31.6027 19.2876 31.6027C18.451 31.6027 17.608 31.6027 16.7714 31.6027C16.4407 31.6027 16.2202 31.8038 16.2267 32.0891C16.2332 32.3679 16.4472 32.556 16.7649 32.5625C17.7442 32.5625 18.7169 32.5625 19.6961 32.5625C19.7415 32.556 19.7869 32.5495 19.8582 32.5495ZM20.9412 26.5509C20.6689 26.7325 20.4224 26.8882 20.1825 27.0632C20.1306 27.1022 20.0917 27.1929 20.0917 27.2578C20.0852 27.835 20.0852 28.4121 20.0917 28.9893C20.0917 29.0541 20.1176 29.1384 20.163 29.1709C20.4159 29.3524 20.6754 29.521 20.9412 29.6961C21.46 28.6456 21.4665 27.6145 20.9412 26.5509ZM27.7958 19.7612C28.3211 19.8195 28.788 19.7742 29.0863 19.2878C29.3198 18.9052 29.3068 18.5161 29.0604 18.1464C28.7556 17.699 28.2952 17.6601 27.7958 17.7054C27.7958 18.3929 27.7958 19.0673 27.7958 19.7612ZM19.1968 17.7054C18.6456 17.6536 18.1657 17.7249 17.8803 18.2372C17.6663 18.6263 17.6987 19.0154 17.9646 19.3721C18.2824 19.7871 18.7234 19.8131 19.1968 19.7612C19.1968 19.0673 19.1968 18.3929 19.1968 17.7054ZM20.6105 30.2603C20.2992 30.0528 20.0528 29.8777 19.7934 29.7221C19.735 29.6897 19.6442 29.6832 19.5794 29.7026C19.0282 29.8712 18.4769 30.0528 17.9322 30.2344C17.8803 30.2538 17.8025 30.2798 17.7895 30.3187C17.7247 30.5262 17.6793 30.7337 17.6144 30.9866C18.3278 30.9866 18.9828 30.9866 19.6378 30.9866C19.6831 30.9866 19.7415 30.9672 19.7739 30.9413C20.0463 30.7208 20.3122 30.5068 20.6105 30.2603Z" fill="white"/>
<path d="M23.6519 27.355C23.4249 27.355 23.2304 27.3615 23.0358 27.355C22.8283 27.3485 22.6986 27.2318 22.6921 27.0437C22.6856 26.8492 22.8153 26.713 23.0358 26.7065C23.3471 26.7 23.6584 26.7 23.9697 26.7065C24.1837 26.713 24.3069 26.8362 24.3069 27.0502C24.3134 28.1786 24.3134 29.3005 24.3069 30.4289C24.3069 30.6429 24.1642 30.7856 23.9761 30.7791C23.7816 30.7726 23.6584 30.6299 23.6584 30.39C23.6584 29.4691 23.6584 28.5418 23.6584 27.6209C23.6519 27.5431 23.6519 27.4653 23.6519 27.355Z" fill="white"/>
<path d="M23.49 21.0193C22.8609 20.9998 22.3097 20.7923 21.8493 20.3643C21.6742 20.2022 21.6482 20.0206 21.7779 19.8714C21.9076 19.7223 22.0957 19.7223 22.2773 19.8714C23.0749 20.5264 23.931 20.5329 24.7092 19.8779C24.8907 19.7223 25.0723 19.7158 25.2085 19.8585C25.3512 20.0076 25.3252 20.1957 25.1372 20.3643C24.6702 20.7988 24.1125 21.0063 23.49 21.0193Z" fill="white"/>
<path d="M22.7829 17.6794C22.7829 17.8156 22.7894 17.9518 22.7829 18.088C22.7699 18.2761 22.6597 18.3798 22.4846 18.3928C22.303 18.4058 22.1668 18.302 22.1539 18.1204C22.1344 17.8221 22.1344 17.5173 22.1539 17.2125C22.1668 17.0374 22.3095 16.9337 22.4911 16.9466C22.6662 16.9596 22.7764 17.0699 22.7894 17.2579C22.7894 17.4071 22.7829 17.5433 22.7829 17.6794Z" fill="white"/>
<path d="M24.2097 17.66C24.2097 17.5303 24.2032 17.4006 24.2097 17.2709C24.2226 17.0828 24.3523 16.9467 24.5209 16.9467C24.7025 16.9531 24.8322 17.0504 24.8452 17.232C24.8646 17.5238 24.8646 17.8221 24.8452 18.1139C24.8322 18.289 24.696 18.3928 24.5145 18.3928C24.3394 18.3928 24.2162 18.2631 24.2097 18.0686C24.2032 17.9389 24.2097 17.7962 24.2097 17.66Z" fill="white"/>
</svg>
