<svg width="44" height="44" viewBox="0 0 44 44" fill="none" xmlns="http://www.w3.org/2000/svg">
<circle cx="22" cy="22" r="22" fill="#FF4E00"/>
<path d="M20.9264 33.3158C20.5001 33.259 20.0738 33.2116 19.6476 33.1358C17.4025 32.7475 15.4321 31.7812 13.7554 30.2276C11.7945 28.4183 10.5535 26.1922 10.1556 23.5492C9.55885 19.58 10.6767 16.1319 13.5375 13.2995C15.3468 11.4996 17.554 10.4481 20.0833 10.1071C26.3165 9.27345 31.7919 13.4037 33.0329 19.1537C33.1465 19.6748 33.1939 20.2052 33.2697 20.7263C33.2792 20.7926 33.2981 20.8589 33.3076 20.9252C33.3076 21.3988 33.3076 21.863 33.3076 22.3367C33.2507 22.7914 33.2034 23.2555 33.1276 23.7102C32.8434 25.3491 32.2182 26.8458 31.2898 28.2194C31.1288 28.4562 30.8541 28.5225 30.6362 28.3804C30.4088 28.2289 30.371 27.9636 30.5415 27.6984C31.3561 26.4953 31.9245 25.188 32.1898 23.7576C32.815 20.3852 32.0477 17.3539 29.8499 14.7204C28.1922 12.7406 26.0702 11.5091 23.522 11.0733C20.2349 10.5144 17.2888 11.3196 14.7311 13.451C12.7512 15.1088 11.5198 17.2307 11.084 19.779C10.5251 23.0661 11.3303 26.0122 13.4617 28.5699C14.9016 30.294 16.7204 31.4591 18.8992 32.0275C21.94 32.8138 24.8008 32.3591 27.4722 30.6918C27.548 30.6445 27.6238 30.5876 27.6996 30.5403C27.9648 30.3697 28.2301 30.4076 28.3816 30.635C28.5237 30.8529 28.4669 31.1465 28.2016 31.2981C27.5764 31.6581 26.9512 32.037 26.2881 32.3496C25.104 32.899 23.8441 33.1927 22.5368 33.2779C22.4705 33.2779 22.4042 33.3064 22.3379 33.3158C21.8642 33.3158 21.4001 33.3158 20.9264 33.3158Z" fill="white"/>
<path d="M12.7323 21.6641C12.7323 16.7477 16.7299 12.7406 21.6464 12.7406C26.5723 12.7311 30.5888 16.7572 30.5794 21.6736C30.5699 26.5901 26.5628 30.5877 21.6558 30.5877C16.7299 30.5782 12.7323 26.5711 12.7323 21.6641ZM27.0081 15.6962C25.5776 14.4552 23.9672 13.7732 22.1295 13.6595C22.12 13.7069 22.1105 13.7163 22.1105 13.7353C22.1105 13.9816 22.1105 14.2184 22.1105 14.4647C22.1105 14.7963 21.94 15.0047 21.6653 15.0141C21.3811 15.0141 21.2011 14.8057 21.2011 14.4552C21.2011 14.19 21.2011 13.9342 21.2011 13.6595C19.335 13.7921 17.7246 14.4552 16.3036 15.7057C16.531 15.9235 16.7488 16.113 16.9478 16.3214C17.1467 16.5298 17.1467 16.7856 16.9667 16.975C16.7867 17.1645 16.5215 17.1645 16.3131 16.9656C16.1047 16.7572 15.9057 16.5393 15.6973 16.3119C14.4564 17.7423 13.7743 19.3527 13.6512 21.2189C13.9354 21.2189 14.2006 21.2189 14.4659 21.2189C14.7974 21.2189 15.0058 21.3989 15.0058 21.6736C15.0058 21.9483 14.7974 22.1283 14.4659 22.1283C14.2006 22.1283 13.9354 22.1283 13.6512 22.1283C13.7743 23.9945 14.4469 25.5954 15.6973 27.0353C15.9057 26.808 16.0952 26.5806 16.3131 26.3722C16.5499 26.1449 16.8815 26.1922 17.033 26.4575C17.1467 26.6469 17.1183 26.8459 16.9288 27.0353C16.7299 27.2343 16.512 27.4332 16.2941 27.6321C17.7246 28.8731 19.3255 29.5457 21.1917 29.6688C21.1917 29.4225 21.1917 29.2046 21.1917 28.9868C21.1917 28.5321 21.3432 28.3142 21.6558 28.3142C21.959 28.3142 22.1011 28.5321 22.1011 28.9678C22.1011 29.1952 22.1011 29.4225 22.1011 29.6593C23.9672 29.5362 25.5776 28.8636 26.9986 27.6132C26.7712 27.3953 26.5439 27.2058 26.345 26.9974C26.1176 26.7606 26.165 26.4291 26.4302 26.2775C26.6197 26.1733 26.8281 26.2017 27.0081 26.3817C27.207 26.5806 27.3965 26.7985 27.6049 27.0164C28.8458 25.5765 29.5184 23.9756 29.6415 22.1378C29.6037 22.1283 29.5847 22.1189 29.5752 22.1189C29.3289 22.1189 29.0732 22.1189 28.8269 22.1189C28.5048 22.1189 28.2964 21.9294 28.2964 21.6547C28.3059 21.3894 28.5048 21.2094 28.8269 21.2094C29.1016 21.2094 29.3668 21.2094 29.651 21.2094C29.5184 19.3433 28.8553 17.7329 27.6427 16.3498C27.6143 16.3593 27.6049 16.3593 27.6049 16.3688C27.4154 16.5582 27.2259 16.7382 27.0365 16.9277C26.7997 17.155 26.5534 17.174 26.3544 16.975C26.146 16.7761 26.165 16.5109 26.4018 16.274C26.5912 16.0846 26.7902 15.8951 27.0081 15.6962Z" fill="white"/>
<path d="M30.0299 29.574C30.0299 29.8298 29.8215 30.0382 29.5752 30.0382C29.3289 30.0382 29.13 29.8298 29.13 29.593C29.13 29.3372 29.3384 29.1288 29.5847 29.1288C29.8215 29.1288 30.0299 29.3372 30.0299 29.574Z" fill="white"/>
<path d="M22.1105 19.4664C22.1105 20.0727 22.101 20.6789 22.1199 21.2852C22.1199 21.3894 22.1768 21.522 22.2525 21.5978C23.0672 22.422 23.8914 23.2461 24.706 24.0608C24.7534 24.1081 24.8008 24.1555 24.8481 24.2029C25.0471 24.4207 25.0565 24.686 24.8671 24.8755C24.6776 25.0554 24.4124 25.0554 24.1945 24.8376C23.5503 24.2029 22.9157 23.5587 22.281 22.924C21.9873 22.6304 21.6747 22.3462 21.4 22.0336C21.2958 21.9104 21.201 21.721 21.201 21.5504C21.1821 20.2432 21.1916 18.9454 21.1916 17.6381C21.1916 17.3066 21.3716 17.0981 21.6463 17.0981C21.921 17.0981 22.101 17.3066 22.101 17.6381C22.1105 18.2538 22.1105 18.8601 22.1105 19.4664Z" fill="white"/>
</svg>
