<svg width="44" height="44" viewBox="0 0 44 44" fill="none" xmlns="http://www.w3.org/2000/svg">
<circle cx="22" cy="22" r="22" fill="#FF4E00"/>
<path d="M11.6892 22.6635C11.8064 22.531 11.9186 22.4035 12.0359 22.2709C12.8364 21.3787 13.7541 20.6292 14.779 20.0122C15.141 19.7981 15.4979 19.5737 15.8497 19.3443C15.8956 19.3137 15.916 19.2372 15.9313 19.176C16.4004 17.0702 16.8644 14.9645 17.3334 12.8587C17.3997 12.563 17.4609 12.2672 17.5323 11.9715C17.5833 11.7574 17.726 11.6605 17.9096 11.7013C18.0881 11.7421 18.1747 11.895 18.1339 12.1143C18.0779 12.3947 18.0116 12.6802 17.9402 12.9862C18.2869 13.0728 18.6285 13.1595 18.9701 13.2411C20.2244 13.547 21.4736 13.8427 22.7228 14.1538C22.8809 14.1946 22.9318 14.1487 22.9828 14.011C23.2582 13.338 23.5386 12.67 23.819 12.0021C23.8496 11.9358 23.8751 11.8644 23.921 11.8083C24.0128 11.686 24.1606 11.6452 24.2779 11.7268C24.3646 11.788 24.4156 11.9205 24.4564 12.0327C24.4717 12.0837 24.4258 12.1602 24.4003 12.2213C23.6814 13.9447 22.9624 15.6681 22.2435 17.3915C22.2129 17.4577 22.1823 17.5291 22.1364 17.5852C22.0345 17.6974 21.907 17.7229 21.7744 17.6464C21.6266 17.5648 21.5705 17.4322 21.6317 17.2691C21.7387 16.9887 21.856 16.7082 21.9733 16.4227C20.4539 16.0862 18.9395 15.7548 17.3997 15.4132C17.3232 15.7599 17.2366 16.1525 17.1499 16.5451C16.9001 17.6821 16.6502 18.814 16.4004 19.951C16.3851 20.0224 16.38 20.1142 16.4106 20.1805C16.6757 20.7872 17.0326 21.3379 17.466 21.8426C18.0167 22.48 18.705 22.4851 19.3627 22.1639C19.5565 22.067 19.684 21.9344 19.7706 21.7254C20.2295 20.5986 20.7037 19.4768 21.1728 18.3551C21.2952 18.0594 21.4481 17.9574 21.6419 18.0441C21.8407 18.1308 21.8713 18.2939 21.7438 18.5999C21.2646 19.7522 20.7802 20.9045 20.306 22.0619C20.2703 22.1486 20.2601 22.2709 20.2907 22.3627C20.4029 22.7604 20.5354 23.1581 20.6629 23.5558C20.7037 23.5558 20.7292 23.5609 20.7547 23.5558C20.9433 23.5303 21.0963 23.5762 21.1524 23.7751C21.2034 23.9586 21.1167 24.0861 20.9433 24.1575C20.9128 24.1677 20.9026 24.2238 20.8822 24.2594C20.9281 24.2747 20.9688 24.3053 21.0147 24.3104C21.2697 24.3308 21.4124 24.5195 21.3156 24.7285C21.285 24.7897 21.2187 24.8305 21.1677 24.8866C21.1422 24.9172 21.1065 24.9631 21.1167 24.9886C21.1269 25.0192 21.1779 25.0497 21.2136 25.0497C21.4022 25.0548 21.5501 25.1364 21.545 25.3251C21.545 25.4474 21.443 25.5749 21.3869 25.6973C21.3665 25.6922 21.3461 25.682 21.3257 25.6769C21.3665 25.8197 21.4124 25.9573 21.4481 26.1001C21.4991 26.2989 21.4277 26.4519 21.2544 26.508C21.0861 26.5641 20.9382 26.4876 20.8618 26.2887C20.8006 26.1256 20.7496 25.9624 20.6935 25.784C20.5354 25.8095 20.3927 25.8401 20.2499 25.8553C20.046 25.8808 19.9083 25.7789 19.8777 25.6055C19.8522 25.4475 19.9542 25.2996 20.1377 25.2537C20.255 25.2231 20.3723 25.2078 20.4896 25.1823C20.4947 25.1619 20.5049 25.1415 20.51 25.1211C20.4539 25.0956 20.3978 25.0497 20.3468 25.0548C20.2397 25.0599 20.1377 25.0956 20.0307 25.1109C19.8624 25.1364 19.7095 25.0396 19.6687 24.8866C19.6228 24.7234 19.7095 24.5654 19.8879 24.5093C20.0103 24.4736 20.1326 24.4532 20.2805 24.3716C20.2244 24.3461 20.1683 24.3002 20.1174 24.3002C19.9899 24.3053 19.8675 24.3461 19.74 24.3512C19.5616 24.3614 19.429 24.2594 19.4137 24.0963C19.3933 23.9127 19.48 23.7955 19.6534 23.7496C19.7757 23.719 19.8981 23.6986 20.0409 23.668C19.9338 23.3366 19.8369 23.0154 19.7298 22.6839C19.5667 22.7451 19.4137 22.8114 19.2557 22.8624C18.4144 23.1428 17.6853 22.9695 17.0734 22.3168C16.538 21.7458 16.1301 21.0931 15.8191 20.3793C15.7834 20.2977 15.7477 20.2213 15.7019 20.1193C14.9574 20.6546 14.162 21.0931 13.4431 21.6846C13.7032 21.9446 13.9428 22.1792 14.1773 22.4188C14.5291 22.7706 14.881 23.1224 15.2328 23.4742C15.3959 23.6425 15.4163 23.821 15.2838 23.9535C15.1461 24.0963 14.9676 24.0861 14.7892 23.9076C14.2028 23.3213 13.6216 22.7349 13.0454 22.1588C12.8517 22.3576 12.663 22.5463 12.4642 22.7553C12.4846 22.7757 12.5304 22.8318 12.5814 22.8828C14.6362 24.9376 16.6859 26.9975 18.7407 29.0523C19.4647 29.7763 20.2499 30.4289 21.1881 30.8776C21.4175 30.9847 21.6623 31.0561 21.907 31.1325C22.3251 31.26 22.6361 31.1019 22.8554 30.745C21.443 30.3677 20.357 29.4703 19.3423 28.4812C18.0881 27.2524 16.8593 25.9981 15.6203 24.754C15.5795 24.7132 15.5336 24.6673 15.4979 24.6215C15.3908 24.4838 15.3959 24.3461 15.5081 24.2187C15.6152 24.0963 15.7834 24.0861 15.9262 24.1932C15.9823 24.234 16.0282 24.2849 16.0741 24.3308C17.308 25.5698 18.5418 26.8088 19.7808 28.0427C20.5252 28.7871 21.3309 29.4601 22.2996 29.8986C22.5596 30.0159 22.8401 30.0771 23.1103 30.1689C23.1307 30.1485 23.1562 30.123 23.1766 30.1026C23.0899 29.8935 23.0185 29.6743 22.9064 29.4754C22.5698 28.8891 22.0957 28.42 21.5705 28.007C21.2544 27.7572 21.2136 27.4054 21.1269 27.0688C21.0912 26.9261 21.1932 26.8139 21.3359 26.7629C21.4838 26.7119 21.6011 26.768 21.6827 26.8904C21.7082 26.9312 21.7337 26.972 21.7387 27.0179C21.7846 27.3493 21.9988 27.5532 22.2384 27.7623C22.7738 28.2365 23.2684 28.7514 23.5692 29.4143C23.661 29.6182 23.7324 29.8426 23.768 30.0669C23.8241 30.4748 23.7375 30.8419 23.3958 31.1172C23.3041 31.1937 23.2123 31.2804 23.1409 31.3722C22.8044 31.8005 22.3455 31.8311 21.8611 31.7597C21.6623 31.7342 21.4685 31.6679 21.2799 31.6016C21.1677 31.5608 21.1065 31.571 21.0504 31.6781C21.0147 31.7495 20.9688 31.8158 20.9179 31.8769C20.8108 32.0044 20.6731 32.035 20.5202 31.9585C20.3774 31.8871 20.3264 31.7087 20.4029 31.5557C20.4437 31.464 20.5049 31.3824 20.5558 31.2957C20.1225 30.9949 19.6993 30.694 19.1996 30.3473C19.1078 30.4595 19.0058 30.6074 18.8886 30.7297C18.7152 30.9082 18.5316 30.9184 18.394 30.7807C18.2665 30.6482 18.2869 30.4646 18.4501 30.3014C18.552 30.1944 18.6642 30.0975 18.7509 30.021C18.3532 29.5978 17.9657 29.1848 17.5527 28.7463C17.4354 28.8738 17.3385 28.9911 17.2315 29.093C17.0632 29.2562 16.8848 29.2664 16.7522 29.1338C16.6247 29.0064 16.64 28.8177 16.7981 28.6546C16.8491 28.5985 16.9001 28.5475 16.9561 28.4965C17.0122 28.4455 17.0683 28.3996 17.1091 28.3639C16.6961 27.9509 16.2984 27.5532 15.8701 27.1249C15.7783 27.2269 15.6764 27.3544 15.5591 27.4614C15.3959 27.6144 15.2226 27.6144 15.0951 27.4767C14.9778 27.3544 14.988 27.1708 15.1206 27.023C15.1767 26.9618 15.2328 26.9057 15.294 26.8496C15.3551 26.7986 15.4214 26.7527 15.4775 26.7068C15.0543 26.2836 14.6617 25.891 14.2487 25.478C14.1518 25.5698 14.0448 25.6769 13.9326 25.784C13.7592 25.9522 13.591 25.9624 13.4533 25.8299C13.3207 25.7024 13.336 25.5137 13.4941 25.3506C13.5961 25.2435 13.7083 25.1466 13.8 25.0599C13.387 24.6469 12.9944 24.2492 12.5559 23.8108C12.4744 23.9076 12.3775 24.0351 12.2653 24.1473C12.1072 24.3002 11.9339 24.3053 11.8013 24.1728C11.679 24.0453 11.6841 23.8617 11.8319 23.7037C11.939 23.5915 12.0563 23.4895 12.1786 23.3774C12.0002 23.1938 11.8421 23.0256 11.679 22.8573C11.6892 22.8012 11.6892 22.7298 11.6892 22.6635ZM17.8076 13.598C17.7362 13.9294 17.6751 14.2353 17.5935 14.5413C17.5476 14.7095 17.5935 14.786 17.7566 14.8217C19.2098 15.1429 20.6629 15.4692 22.1161 15.7854C22.1619 15.7956 22.2537 15.7599 22.2741 15.7191C22.4118 15.4132 22.5341 15.1072 22.6718 14.7809C21.0402 14.3832 19.4341 13.9906 17.8076 13.598Z" fill="white"/>
<path d="M26.9241 28.2109C23.9464 28.2058 21.5296 25.7839 21.5194 22.8318C21.5092 19.951 23.7833 17.4016 26.8935 17.3812C29.8967 17.3608 32.344 19.8031 32.3389 22.7604C32.3236 25.7992 29.9221 28.216 26.9241 28.2109ZM27.0312 21.0421C26.7252 21.0778 26.3122 21.1186 25.9043 21.1747C25.8279 21.1849 25.7361 21.2461 25.7004 21.3073C25.3486 21.9293 25.1395 22.5972 25.0784 23.3111C25.0733 23.3875 25.1089 23.4844 25.1548 23.5456C25.6035 24.0963 26.1644 24.4889 26.8272 24.7234C26.8986 24.7489 27.0006 24.7438 27.072 24.7132C27.7144 24.4022 28.2702 23.9739 28.7443 23.4436C28.7851 23.3977 28.8055 23.3111 28.7953 23.2448C28.7239 22.5309 28.4588 21.8834 28.0968 21.2716C28.0713 21.2257 27.9948 21.19 27.9387 21.1798C27.6736 21.1288 27.4085 21.0931 27.0312 21.0421ZM31.7016 22.4392C31.62 21.5775 31.3702 20.8382 30.9266 20.1702C30.8909 20.1192 30.7991 20.0887 30.7278 20.0785C30.2995 20.0377 29.8712 20.0173 29.4429 19.9765C29.3307 19.9663 29.2746 19.9867 29.2134 20.0785C29.0503 20.3181 28.8871 20.5577 28.7137 20.7872C28.6373 20.8892 28.6424 20.9656 28.7036 21.0727C29.0707 21.7152 29.3154 22.3984 29.4225 23.1326C29.4327 23.1989 29.5092 23.2754 29.5703 23.306C29.7743 23.3977 29.9782 23.4742 30.1924 23.5405C30.2587 23.5609 30.3606 23.5405 30.4167 23.4997C30.8093 23.204 31.1917 22.9032 31.5741 22.5972C31.6353 22.5411 31.6761 22.4698 31.7016 22.4392ZM28.0662 20.5577C28.0917 20.5424 28.1427 20.5169 28.1733 20.4762C28.3619 20.2161 28.5506 19.951 28.729 19.6859C28.7545 19.6451 28.7545 19.5584 28.7341 19.5074C28.5608 19.0995 28.3823 18.6967 28.1988 18.2939C28.1682 18.2276 28.0917 18.1562 28.0254 18.1358C27.2555 17.9421 26.4805 17.9574 25.7157 18.1613C25.6545 18.1766 25.5831 18.2582 25.5576 18.3296C25.3945 18.7987 25.2364 19.2678 25.0936 19.7419C25.0733 19.8082 25.0886 19.9102 25.1293 19.9663C25.267 20.1498 25.4149 20.3232 25.5678 20.4915C25.6137 20.5373 25.7055 20.5628 25.7718 20.5577C25.9451 20.5424 26.1134 20.4966 26.2868 20.4762C26.8731 20.4099 27.4544 20.4405 28.0662 20.5577ZM27.2453 25.8706C27.2402 25.9828 27.2402 26.1001 27.2249 26.2122C27.2045 26.355 27.2606 26.4213 27.383 26.4927C27.7552 26.7119 28.1223 26.9515 28.4843 27.1963C28.5812 27.2626 28.6475 27.2728 28.7545 27.2269C29.3817 26.9617 29.9374 26.5895 30.3963 26.0848C30.4473 26.0287 30.4677 25.9165 30.4524 25.8451C30.381 25.5188 30.2791 25.1976 30.2026 24.8713C30.1516 24.6367 30.1924 24.3359 30.0598 24.1829C29.917 24.0198 29.6111 23.9994 29.3868 23.8974C29.2644 23.8464 29.193 23.8719 29.1114 23.9637C28.7086 24.4022 28.2498 24.7846 27.7246 25.0599C27.3626 25.2486 27.1382 25.4423 27.2453 25.8706ZM24.5328 20.2722C24.4818 20.2773 24.4716 20.2824 24.4563 20.2824C23.9107 20.3538 23.3703 20.4252 22.8247 20.5017C22.7686 20.5119 22.6972 20.5628 22.6667 20.6189C22.3403 21.241 22.1772 21.9089 22.1466 22.6125C22.1466 22.6686 22.1925 22.7451 22.2384 22.7859C22.6055 23.0765 22.9777 23.3671 23.3499 23.6476C23.3958 23.6833 23.4876 23.7037 23.5385 23.6833C23.8037 23.5864 24.0637 23.4844 24.3237 23.3671C24.3798 23.3416 24.4461 23.2601 24.4512 23.1938C24.5328 22.4494 24.752 21.7508 25.0987 21.088C25.1242 21.037 25.114 20.9299 25.0784 20.8841C24.9407 20.7005 24.7877 20.5271 24.6399 20.3589C24.6042 20.3181 24.5583 20.2926 24.5328 20.2722ZM26.6131 25.9063C26.6233 25.7279 26.6233 25.6055 26.6386 25.4882C26.6539 25.3709 26.6182 25.3047 26.5009 25.2639C25.8126 24.9987 25.2211 24.5857 24.7469 24.0198C24.6705 23.928 24.6042 23.928 24.5073 23.9739C24.2779 24.0708 24.0484 24.1676 23.819 24.2492C23.7017 24.29 23.666 24.3614 23.6456 24.4838C23.5691 24.9375 23.4825 25.3913 23.3856 25.8451C23.3652 25.9522 23.3754 26.0134 23.4519 26.0899C23.8955 26.5487 24.4053 26.9108 24.9866 27.181C25.1038 27.2371 25.1854 27.232 25.2925 27.1555C25.5729 26.9617 25.8483 26.7425 26.1644 26.615C26.5264 26.4621 26.715 26.2581 26.6131 25.9063ZM30.9113 25.3403C30.9317 25.3403 30.9572 25.3352 30.9776 25.3352C31.3753 24.7081 31.6047 24.03 31.6608 23.2703C31.3498 23.5099 31.0541 23.7699 30.7685 24.03C30.7379 24.0606 30.7226 24.1268 30.7328 24.1778C30.7889 24.5653 30.8501 24.9528 30.9113 25.3403ZM23.1663 19.8388C23.1714 19.8592 23.1816 19.8796 23.1867 19.9C23.5793 19.8235 23.9719 19.747 24.3594 19.6655C24.4002 19.6553 24.4512 19.6247 24.4665 19.589C24.6144 19.227 24.7571 18.865 24.8999 18.503C24.181 18.8038 23.615 19.2525 23.1663 19.8388ZM27.8011 27.5073C27.8062 27.4869 27.8113 27.4716 27.8215 27.4512C27.5359 27.2932 27.2555 27.1351 26.9649 26.9821C26.9292 26.9617 26.8731 26.9566 26.8374 26.977C26.5315 27.1249 26.2307 27.2779 25.9298 27.4308C25.9349 27.4512 25.94 27.4665 25.9451 27.4869C26.5621 27.6195 27.179 27.6297 27.8011 27.5073ZM22.8553 25.3047C22.8757 25.3047 22.891 25.3047 22.9114 25.2996C22.9522 24.9681 22.993 24.6418 23.0287 24.3104C23.0338 24.2696 23.0236 24.2084 22.993 24.1829C22.7482 23.9586 22.4984 23.7393 22.2537 23.5201C22.2384 23.5354 22.2231 23.5456 22.2078 23.5609C22.3046 24.188 22.5188 24.7693 22.8553 25.3047ZM30.2842 19.4615C30.2893 19.4411 30.2944 19.4207 30.2995 19.4003C29.9068 19.0128 29.4684 18.6967 28.9432 18.4826C29.0554 18.7579 29.1879 19.0179 29.3256 19.278C29.3409 19.3086 29.3817 19.3391 29.4174 19.3442C29.708 19.385 29.9986 19.4258 30.2842 19.4615Z" fill="white"/>
</svg>
